<?xml version="1.0" encoding="UTF-8" standalone="no"?>
<!DOCTYPE svg PUBLIC "-//W3C//DTD SVG 1.1//EN"
 "http://www.w3.org/Graphics/SVG/1.1/DTD/svg11.dtd">
<!-- Generated by graphviz version 2.38.0 (20140413.2041)
 -->
<!-- Title: Binder flow diagram Pages: 1 -->
<svg width="375pt" height="515pt"
 viewBox="0.00 0.00 374.50 515.00" xmlns="http://www.w3.org/2000/svg" xmlns:xlink="http://www.w3.org/1999/xlink">
<g id="graph0" class="graph" transform="scale(1 1) rotate(0) translate(4 519)">
<title>Binder flow diagram</title>
<polygon fill="white" stroke="none" points="-4,-4 -4,-519 370.5,-519 370.5,-4 -4,-4"/>
<g id="clust1" class="cluster"><title>cluster0</title>
<polygon fill="none" stroke="black" points="76.5,-8 76.5,-165 228.5,-165 228.5,-8 76.5,-8"/>
<text text-anchor="middle" x="152.5" y="-149.8" font-family="Arial" font-size="14.00">External Services</text>
</g>
<!-- jhub -->
<g id="node1" class="node"><title>jhub</title>
<polygon fill="#7bbeca" stroke="none" points="176.5,-52 84.5,-52 84.5,-16 176.5,-16 176.5,-52"/>
<text text-anchor="middle" x="130.5" y="-30.3" font-family="Arial" font-size="14.00">JupyterHub</text>
</g>
<!-- gcr -->
<g id="node2" class="node"><title>gcr</title>
<polygon fill="#7bbeca" stroke="none" points="220.5,-134 84.5,-134 84.5,-98 220.5,-98 220.5,-134"/>
<text text-anchor="middle" x="152.5" y="-112.3" font-family="Arial" font-size="14.00">gcr.io / DockerHub</text>
</g>
<!-- gcr&#45;&gt;jhub -->
<g id="edge1" class="edge"><title>gcr&#45;&gt;jhub</title>
<path fill="none" stroke="black" d="M147.73,-97.641C144.85,-87.192 141.13,-73.668 137.89,-61.862"/>
<polygon fill="black" stroke="black" points="141.218,-60.763 135.19,-52.05 134.469,-62.6202 141.218,-60.763"/>
<text text-anchor="start" x="142.5" y="-73.8" font-family="Arial" font-style="italic" font-size="9.00">SEND image for user pod</text>
</g>
<!-- bhub -->
<g id="node3" class="node"><title>bhub</title>
<polygon fill="#7bbeca" stroke="none" points="96.5,-425 10.5,-425 10.5,-389 96.5,-389 96.5,-425"/>
<text text-anchor="middle" x="53.5" y="-403.3" font-family="Arial" font-size="14.00">BinderHub</text>
</g>
<!-- bhub&#45;&gt;jhub -->
<g id="edge2" class="edge"><title>bhub&#45;&gt;jhub</title>
<path fill="none" stroke="black" d="M35.895,-388.88C20.81,-372.31 1.5,-345.68 1.5,-318 1.5,-318 1.5,-318 1.5,-115 1.5,-78.266 39.747,-57.816 74.59,-46.809"/>
<polygon fill="black" stroke="black" points="75.6897,-50.1338 84.292,-43.949 73.7104,-43.4194 75.6897,-50.1338"/>
<text text-anchor="start" x="1.5" y="-229.8" font-family="Arial" font-style="italic" font-size="9.00">SEND image registry information</text>
<text text-anchor="start" x="1.5" y="-220.8" font-family="Arial" font-style="italic" font-size="9.00">REDIRECT user interface to</text>
</g>
<!-- build -->
<g id="node4" class="node"><title>build</title>
<polygon fill="#7bbeca" stroke="none" points="198,-335 105,-335 105,-299 198,-299 198,-335"/>
<text text-anchor="start" x="113" y="-318.9" font-family="Arial" font-size="12.00">Build Machine</text>
<text text-anchor="start" x="122.5" y="-309.3" font-family="Arial" font-style="italic" font-size="9.00">(repo2docker)</text>
</g>
<!-- bhub&#45;&gt;build -->
<g id="edge3" class="edge"><title>bhub&#45;&gt;build</title>
<path fill="none" stroke="black" d="M49.148,-388.69C47.384,-377.5 47.211,-363.17 54.5,-353 64.128,-339.56 79.43,-331.26 95.06,-326.15"/>
<polygon fill="black" stroke="black" points="96.1421,-329.481 104.79,-323.36 94.2126,-322.752 96.1421,-329.481"/>
<text text-anchor="start" x="54.5" y="-364.8" font-family="Arial" font-style="italic" font-size="9.00">SEND repo name,</text>
<text text-anchor="start" x="54.5" y="-355.8" font-family="Arial" font-style="italic" font-size="9.00">branch</text>
</g>
<!-- build&#45;&gt;bhub -->
<g id="edge4" class="edge"><title>build&#45;&gt;bhub</title>
<path fill="none" stroke="black" d="M147.86,-335.09C144.68,-346.47 139.03,-361.09 129.5,-371 122.85,-377.91 114.57,-383.59 105.94,-388.21"/>
<polygon fill="black" stroke="black" points="104.328,-385.102 96.883,-392.64 107.404,-391.39 104.328,-385.102"/>
<text text-anchor="start" x="140.5" y="-360.8" font-family="Arial" font-style="italic" font-size="9.00">RETURN image registry information</text>
</g>
<!-- image -->
<g id="node5" class="node"><title>image</title>
<polygon fill="#ff6347" stroke="none" points="261,-245 154,-245 154,-209 261,-209 261,-245"/>
<text text-anchor="middle" x="207.5" y="-223.3" font-family="Arial" font-size="14.00">Docker Image</text>
</g>
<!-- build&#45;&gt;image -->
<g id="edge5" class="edge"><title>build&#45;&gt;image</title>
<path fill="none" stroke="black" d="M162.56,-298.61C170.75,-285.76 182.02,-268.04 191.23,-253.57"/>
<polygon fill="black" stroke="black" points="194.236,-255.366 196.65,-245.05 188.329,-251.609 194.236,-255.366"/>
<text text-anchor="start" x="184.5" y="-274.8" font-family="Arial" font-style="italic" font-size="9.00">IF image not already registered, or diff found:</text>
<text text-anchor="start" x="184.5" y="-265.8" font-family="Arial" font-style="italic" font-size="9.00">BUILD a</text>
</g>
<!-- image&#45;&gt;gcr -->
<g id="edge6" class="edge"><title>image&#45;&gt;gcr</title>
<path fill="none" stroke="black" d="M198.91,-208.97C190.04,-191.39 176.09,-163.75 165.79,-143.35"/>
<polygon fill="black" stroke="black" points="168.839,-141.622 161.21,-134.27 162.589,-144.775 168.839,-141.622"/>
<text text-anchor="start" x="189.5" y="-184.8" font-family="Arial" font-style="italic" font-size="9.00">REGISTERED and SENT to</text>
<text text-anchor="start" x="189.5" y="-175.8" font-family="Arial" font-style="italic" font-size="9.00">online repository</text>
</g>
<!-- user -->
<g id="node6" class="node"><title>user</title>
<polygon fill="#7bbeca" stroke="none" points="107,-515 0,-515 0,-479 107,-479 107,-515"/>
<text text-anchor="middle" x="53.5" y="-493.3" font-family="Arial" font-size="14.00">User Interface</text>
</g>
<!-- user&#45;&gt;bhub -->
<g id="edge7" class="edge"><title>user&#45;&gt;bhub</title>
<path fill="none" stroke="black" d="M53.5,-478.61C53.5,-466.24 53.5,-449.37 53.5,-435.22"/>
<polygon fill="black" stroke="black" points="57.0001,-435.05 53.5,-425.05 50.0001,-435.05 57.0001,-435.05"/>
<text text-anchor="start" x="53.5" y="-454.8" font-family="Arial" font-style="italic" font-size="9.00">SEND repo,</text>
<text text-anchor="start" x="53.5" y="-445.8" font-family="Arial" font-style="italic" font-size="9.00">branch, file</text>
</g>
</g>
</svg>
